<svg width="207" height="91" viewBox="0 0 207 91" fill="none" xmlns="http://www.w3.org/2000/svg">
<rect width="205.933" height="50.0451" fill="#454545"/>
<rect y="49.6851" width="206" height="41" fill="white"/>
<path d="M5.96565 44.6851C5.57898 44.6851 5.23098 44.5497 4.92165 44.2791C4.65098 43.9697 4.51565 43.6217 4.51565 43.2351V5.53506C4.51565 5.14839 4.65098 4.81972 4.92165 4.54906C5.23098 4.23972 5.57898 4.08506 5.96565 4.08506H17.7977C20.2723 4.08506 22.515 4.70372 24.5257 5.94106C26.5363 7.13972 28.141 8.74439 29.3397 10.7551C30.577 12.7657 31.1957 15.0084 31.1957 17.4831V31.2291C31.1957 33.7037 30.577 35.9657 29.3397 38.0151C28.141 40.0257 26.5363 41.6497 24.5257 42.8871C22.515 44.0857 20.2723 44.6851 17.7977 44.6851H5.96565ZM7.41565 41.7851H17.7977C19.731 41.7851 21.4903 41.3211 23.0757 40.3931C24.661 39.4264 25.9177 38.1504 26.8456 36.5651C27.8123 34.9411 28.2957 33.1624 28.2957 31.2291V17.4831C28.2957 15.5497 27.8123 13.7904 26.8456 12.2051C25.9177 10.6197 24.661 9.36306 23.0757 8.43506C21.4903 7.46839 19.731 6.98506 17.7977 6.98506H7.41565V41.7851ZM43.3652 45.4391C42.9786 45.4391 42.6306 45.3037 42.3212 45.0331C42.0506 44.7624 41.9152 44.4337 41.9152 44.0471V4.72306C41.9152 4.29772 42.0506 3.94972 42.3212 3.67906C42.6306 3.36972 42.9786 3.21506 43.3652 3.21506C43.7906 3.21506 44.1386 3.36972 44.4092 3.67906C44.6799 3.94972 44.8152 4.29772 44.8152 4.72306V44.0471C44.8152 44.4337 44.6799 44.7624 44.4092 45.0331C44.1386 45.3037 43.7906 45.4391 43.3652 45.4391ZM70.5822 45.4391C67.6822 45.4391 65.1495 44.8397 62.9842 43.6411C60.8575 42.4424 59.1948 40.7604 57.9962 38.5951C56.7975 36.4297 56.1982 33.9164 56.1982 31.0551V17.5991C56.1982 14.6991 56.8168 12.1857 58.0542 10.0591C59.2915 7.89372 61.0122 6.21172 63.2162 5.01306C65.4588 3.81439 68.0688 3.21506 71.0462 3.21506C73.0955 3.21506 75.0095 3.54372 76.7882 4.20106C78.6055 4.81972 80.1715 5.68972 81.4862 6.81106C82.8395 7.93239 83.8255 9.24706 84.4442 10.7551C84.6375 11.1417 84.6375 11.5284 84.4442 11.9151C84.2509 12.2631 83.9609 12.4951 83.5742 12.6111C82.7235 12.9977 82.1049 12.7464 81.7182 11.8571C80.9835 10.1557 79.6302 8.78306 77.6582 7.73906C75.7248 6.65639 73.5208 6.11506 71.0462 6.11506C68.6489 6.11506 66.5415 6.59839 64.7242 7.56506C62.9455 8.49306 61.5535 9.82706 60.5482 11.5671C59.5815 13.2684 59.0982 15.2791 59.0982 17.5991V31.0551C59.0982 33.3364 59.5622 35.3471 60.4902 37.0871C61.4568 38.8271 62.7908 40.1804 64.4922 41.1471C66.2322 42.0751 68.2622 42.5391 70.5822 42.5391C72.3995 42.5391 74.2362 42.3264 76.0922 41.9011C77.9482 41.4757 79.4948 40.8957 80.7322 40.1611V29.4891H71.6842C70.6788 29.4891 70.1762 29.0057 70.1762 28.0391C70.1762 27.0724 70.6788 26.5891 71.6842 26.5891H82.2402C83.1682 26.5891 83.6322 27.0724 83.6322 28.0391V40.9731C83.6322 41.5144 83.4195 41.9397 82.9942 42.2491C81.5248 43.2157 79.6495 43.9891 77.3682 44.5691C75.0868 45.1491 72.8248 45.4391 70.5822 45.4391ZM140.436 45.1491C140.049 45.0331 139.779 44.8011 139.624 44.4531C139.469 44.0664 139.469 43.6797 139.624 43.2931L154.182 4.02706C154.453 3.40839 154.917 3.09906 155.574 3.09906C156.231 3.09906 156.695 3.40839 156.966 4.02706L171.582 43.2931C171.737 43.6797 171.717 44.0664 171.524 44.4531C171.369 44.8011 171.099 45.0331 170.712 45.1491C170.364 45.3037 169.997 45.2844 169.61 45.0911C169.262 44.9364 169.011 44.6657 168.856 44.2791L155.574 8.72506L147.512 30.2431H158.474C158.861 30.2431 159.189 30.3977 159.46 30.7071C159.731 30.9777 159.866 31.3257 159.866 31.7511C159.866 32.1377 159.731 32.4664 159.46 32.7371C159.189 33.0077 158.861 33.1431 158.474 33.1431H146.41L142.292 44.2791C142.137 44.6657 141.886 44.9364 141.538 45.0911C141.19 45.2844 140.823 45.3037 140.436 45.1491ZM181.667 44.6851C181.28 44.6851 180.932 44.5497 180.623 44.2791C180.352 43.9697 180.217 43.6217 180.217 43.2351V4.72306C180.217 4.29772 180.352 3.94972 180.623 3.67906C180.932 3.36972 181.28 3.21506 181.667 3.21506C182.092 3.21506 182.44 3.36972 182.711 3.67906C182.982 3.94972 183.117 4.29772 183.117 4.72306V41.7851H202.025C202.45 41.7851 202.798 41.9204 203.069 42.1911C203.34 42.4617 203.475 42.8097 203.475 43.2351C203.475 43.6217 203.34 43.9697 203.069 44.2791C202.798 44.5497 202.45 44.6851 202.025 44.6851H181.667Z" fill="white"/>
<path d="M96.7592 45.4391C96.3725 45.4391 96.0245 45.3037 95.7152 45.0331C95.4445 44.7624 95.3092 44.4337 95.3092 44.0471V4.72306C95.3092 4.29772 95.4445 3.94972 95.7152 3.67906C96.0245 3.36972 96.3725 3.21506 96.7592 3.21506C97.1845 3.21506 97.5325 3.36972 97.8032 3.67906C98.0739 3.94972 98.2092 4.29772 98.2092 4.72306V44.0471C98.2092 44.4337 98.0739 44.7624 97.8032 45.0331C97.5325 45.3037 97.1845 45.4391 96.7592 45.4391ZM123.454 45.4971C123.029 45.4971 122.662 45.3617 122.352 45.0911C122.082 44.8204 121.946 44.4917 121.946 44.1051V6.98506H109.36C108.974 6.98506 108.645 6.84972 108.374 6.57906C108.104 6.26972 107.968 5.92172 107.968 5.53506C107.968 5.14839 108.104 4.81972 108.374 4.54906C108.645 4.23972 108.974 4.08506 109.36 4.08506H137.432C137.819 4.08506 138.148 4.23972 138.418 4.54906C138.728 4.81972 138.882 5.14839 138.882 5.53506C138.882 5.92172 138.728 6.26972 138.418 6.57906C138.148 6.84972 137.819 6.98506 137.432 6.98506H124.846V44.1051C124.846 44.4917 124.711 44.8204 124.44 45.0911C124.17 45.3617 123.841 45.4971 123.454 45.4971Z" fill="#18CEF3"/>
<path d="M16.03 87.3291C15.6927 87.3291 15.4013 87.2217 15.156 87.0071C14.9413 86.7924 14.834 86.5317 14.834 86.2251V56.7851H4.852C4.54533 56.7851 4.28467 56.6777 4.07 56.4631C3.85533 56.2177 3.748 55.9417 3.748 55.6351C3.748 55.3284 3.85533 55.0677 4.07 54.8531C4.28467 54.6077 4.54533 54.4851 4.852 54.4851H27.116C27.4227 54.4851 27.6833 54.6077 27.898 54.8531C28.1433 55.0677 28.266 55.3284 28.266 55.6351C28.266 55.9417 28.1433 56.2177 27.898 56.4631C27.6833 56.6777 27.4227 56.7851 27.116 56.7851H17.134V86.2251C17.134 86.5317 17.0267 86.7924 16.812 87.0071C16.5973 87.2217 16.3367 87.3291 16.03 87.3291ZM36.7943 87.3291C36.4877 87.3291 36.2117 87.2217 35.9663 87.0071C35.7517 86.7924 35.6443 86.5317 35.6443 86.2251V55.6351C35.6443 55.3284 35.7517 55.0677 35.9663 54.8531C36.2117 54.6077 36.4877 54.4851 36.7943 54.4851H48.1103C49.8277 54.4851 51.3763 54.9144 52.7563 55.7731C54.167 56.6011 55.2863 57.7204 56.1143 59.1311C56.973 60.5111 57.4023 62.0444 57.4023 63.7311C57.4023 65.1724 57.0803 66.5217 56.4363 67.7791C55.823 69.0364 54.9797 70.1097 53.9063 70.9991C52.833 71.8577 51.6063 72.4404 50.2263 72.7471L57.3563 85.6731C57.5097 85.9797 57.5403 86.2864 57.4483 86.5931C57.3563 86.8691 57.1877 87.0837 56.9423 87.2371C56.6357 87.3904 56.329 87.4211 56.0223 87.3291C55.7463 87.2371 55.5317 87.0531 55.3783 86.7771L47.7883 73.0231H41.0723C40.7657 73.0231 40.4897 72.9157 40.2443 72.7011C40.0297 72.4557 39.9223 72.1797 39.9223 71.8731C39.9223 71.5357 40.0297 71.2597 40.2443 71.0451C40.4897 70.8304 40.7657 70.7231 41.0723 70.7231H48.1103C49.3983 70.7231 50.5637 70.4164 51.6063 69.8031C52.6797 69.1591 53.523 68.3157 54.1363 67.2731C54.7803 66.1997 55.1023 65.0191 55.1023 63.7311C55.1023 62.4431 54.7803 61.2777 54.1363 60.2351C53.523 59.1924 52.6797 58.3644 51.6063 57.7511C50.5637 57.1071 49.3983 56.7851 48.1103 56.7851H37.9443V86.2251C37.9443 86.5317 37.837 86.7924 37.6223 87.0071C37.4077 87.2217 37.1317 87.3291 36.7943 87.3291ZM74.9736 87.2831C74.6669 87.2831 74.3909 87.1757 74.1456 86.9611C73.9309 86.7464 73.8236 86.4857 73.8236 86.1791V72.8851L63.0136 55.5891C62.8296 55.3131 62.7683 55.0217 62.8296 54.7151C62.9216 54.4084 63.0903 54.1631 63.3356 53.9791C63.6423 53.8257 63.9489 53.7797 64.2556 53.8411C64.5623 53.9024 64.7923 54.0711 64.9456 54.3471L74.9736 70.3551L84.8636 54.3471C85.0476 54.0711 85.2929 53.9024 85.5996 53.8411C85.9063 53.7491 86.1976 53.7951 86.4736 53.9791C86.7189 54.1631 86.8723 54.4084 86.9336 54.7151C87.0256 55.0217 86.9796 55.3131 86.7956 55.5891L76.1236 72.8851V86.1791C76.1236 86.4857 76.0163 86.7464 75.8016 86.9611C75.5869 87.1757 75.3109 87.2831 74.9736 87.2831ZM103.343 87.2831C101.043 87.2831 99.0347 86.8077 97.3174 85.8571C95.6307 84.9064 94.3121 83.5724 93.3614 81.8551C92.4107 80.1377 91.9354 78.1444 91.9354 75.8751V65.2031C91.9354 62.9031 92.4261 60.9097 93.4074 59.2231C94.3887 57.5057 95.7534 56.1717 97.5014 55.2211C99.2801 54.2704 101.35 53.7951 103.711 53.7951C105.337 53.7951 106.855 54.0557 108.265 54.5771C109.707 55.0677 110.949 55.7577 111.991 56.6471C113.065 57.5364 113.847 58.5791 114.337 59.7751C114.491 60.0817 114.491 60.3884 114.337 60.6951C114.184 60.9711 113.954 61.1551 113.647 61.2471C112.973 61.5537 112.482 61.3544 112.175 60.6491C111.593 59.2997 110.519 58.2111 108.955 57.3831C107.422 56.5244 105.674 56.0951 103.711 56.0951C101.81 56.0951 100.139 56.4784 98.6974 57.2451C97.2867 57.9811 96.1827 59.0391 95.3854 60.4191C94.6187 61.7684 94.2354 63.3631 94.2354 65.2031V75.8751C94.2354 77.6844 94.6034 79.2791 95.3394 80.6591C96.1061 82.0391 97.1641 83.1124 98.5134 83.8791C99.8934 84.6151 101.503 84.9831 103.343 84.9831C104.785 84.9831 106.241 84.8144 107.713 84.4771C109.185 84.1397 110.412 83.6797 111.393 83.0971V74.6331H104.217C103.42 74.6331 103.021 74.2497 103.021 73.4831C103.021 72.7164 103.42 72.3331 104.217 72.3331H112.589C113.325 72.3331 113.693 72.7164 113.693 73.4831V83.7411C113.693 84.1704 113.525 84.5077 113.187 84.7531C112.022 85.5197 110.535 86.1331 108.725 86.5931C106.916 87.0531 105.122 87.2831 103.343 87.2831ZM123.828 87.2831C123.522 87.2831 123.246 87.1757 123 86.9611C122.786 86.7464 122.678 86.4857 122.678 86.1791V54.9451C122.678 54.6384 122.786 54.3777 123 54.1631C123.246 53.9177 123.522 53.7951 123.828 53.7951C124.166 53.7951 124.442 53.9177 124.656 54.1631C124.871 54.3777 124.978 54.6384 124.978 54.9451V68.6531H141.814V54.9451C141.814 54.6384 141.922 54.3777 142.136 54.1631C142.382 53.9177 142.658 53.7951 142.964 53.7951C143.302 53.7951 143.562 53.9177 143.746 54.1631C143.961 54.3777 144.068 54.6384 144.068 54.9451V86.1791C144.068 86.4857 143.961 86.7464 143.746 86.9611C143.562 87.1757 143.302 87.2831 142.964 87.2831C142.658 87.2831 142.382 87.1757 142.136 86.9611C141.922 86.7464 141.814 86.4857 141.814 86.1791V70.9531H124.978V86.1791C124.978 86.4857 124.871 86.7464 124.656 86.9611C124.442 87.1757 124.166 87.2831 123.828 87.2831ZM154.382 86.6851C154.076 86.6851 153.8 86.5777 153.554 86.3631C153.34 86.1177 153.232 85.8417 153.232 85.5351V55.6351C153.232 55.3284 153.34 55.0677 153.554 54.8531C153.8 54.6077 154.076 54.4851 154.382 54.4851H170.528C170.866 54.4851 171.142 54.6077 171.356 54.8531C171.571 55.0677 171.678 55.3284 171.678 55.6351C171.678 55.9417 171.571 56.2177 171.356 56.4631C171.142 56.6777 170.866 56.7851 170.528 56.7851H155.532V69.1591H167.998C168.305 69.1591 168.566 69.2664 168.78 69.4811C169.026 69.6957 169.148 69.9717 169.148 70.3091C169.148 70.6157 169.026 70.8917 168.78 71.1371C168.566 71.3517 168.305 71.4591 167.998 71.4591H155.532V84.3851H170.528C170.866 84.3851 171.142 84.4924 171.356 84.7071C171.571 84.9217 171.678 85.1977 171.678 85.5351C171.678 85.8417 171.571 86.1177 171.356 86.3631C171.142 86.5777 170.866 86.6851 170.528 86.6851H154.382ZM181.118 86.6851C180.811 86.6851 180.535 86.5777 180.29 86.3631C180.075 86.1177 179.968 85.8417 179.968 85.5351V55.6351C179.968 55.3284 180.075 55.0677 180.29 54.8531C180.535 54.6077 180.811 54.4851 181.118 54.4851H190.502C192.464 54.4851 194.243 54.9757 195.838 55.9571C197.432 56.9077 198.705 58.1804 199.656 59.7751C200.637 61.3697 201.128 63.1484 201.128 65.1111V76.0131C201.128 77.9757 200.637 79.7697 199.656 81.3951C198.705 82.9897 197.432 84.2777 195.838 85.2591C194.243 86.2097 192.464 86.6851 190.502 86.6851H181.118ZM182.268 84.3851H190.502C192.035 84.3851 193.43 84.0171 194.688 83.2811C195.945 82.5144 196.942 81.5024 197.678 80.2451C198.444 78.9571 198.828 77.5464 198.828 76.0131V65.1111C198.828 63.5777 198.444 62.1824 197.678 60.9251C196.942 59.6677 195.945 58.6711 194.688 57.9351C193.43 57.1684 192.035 56.7851 190.502 56.7851H182.268V84.3851Z" fill="black"/>
<path d="M98.902 46.4391C98.5153 46.4391 98.1673 46.3037 97.858 46.0331C97.5873 45.7624 97.452 45.4337 97.452 45.0471V5.72306C97.452 5.29772 97.5873 4.94972 97.858 4.67906C98.1673 4.36972 98.5153 4.21506 98.902 4.21506C99.3273 4.21506 99.6753 4.36972 99.946 4.67906C100.217 4.94972 100.352 5.29772 100.352 5.72306V45.0471C100.352 45.4337 100.217 45.7624 99.946 46.0331C99.6753 46.3037 99.3273 46.4391 98.902 46.4391ZM125.597 46.4971C125.172 46.4971 124.804 46.3617 124.495 46.0911C124.224 45.8204 124.089 45.4917 124.089 45.1051V7.98506H111.503C111.116 7.98506 110.788 7.84972 110.517 7.57906C110.246 7.26972 110.111 6.92172 110.111 6.53506C110.111 6.14839 110.246 5.81972 110.517 5.54906C110.788 5.23972 111.116 5.08506 111.503 5.08506H139.575C139.962 5.08506 140.29 5.23972 140.561 5.54906C140.87 5.81972 141.025 6.14839 141.025 6.53506C141.025 6.92172 140.87 7.26972 140.561 7.57906C140.29 7.84972 139.962 7.98506 139.575 7.98506H126.989V45.1051C126.989 45.4917 126.854 45.8204 126.583 46.0911C126.312 46.3617 125.984 46.4971 125.597 46.4971Z" fill="white"/>
</svg>
